<mxfile host="Electron" agent="Mozilla/5.0 (Windows NT 10.0; Win64; x64) AppleWebKit/537.36 (KHTML, like Gecko) draw.io/26.0.16 Chrome/132.0.6834.196 Electron/34.2.0 Safari/537.36" version="26.0.16">
  <diagram name="Page-1" id="srrDwHK8Fc0FGXfFMyzu">
    <mxGraphModel dx="2607" dy="1607" grid="1" gridSize="10" guides="1" tooltips="1" connect="1" arrows="1" fold="1" page="1" pageScale="1" pageWidth="1654" pageHeight="1169" math="0" shadow="0">
      <root>
        <mxCell id="0" />
        <mxCell id="1" parent="0" />
        <mxCell id="koIK7alW1g3D1J8-F5n0-1" value="Data Flow Diagram &lt;span style=&quot;font-weight: normal;&quot;&gt;&lt;font style=&quot;font-size: 16px;&quot;&gt;(Data Lineage)&lt;/font&gt;&lt;/span&gt;" style="text;strokeColor=none;fillColor=none;html=1;align=center;verticalAlign=middle;whiteSpace=wrap;rounded=0;fontSize=30;fontFamily=Helvetica;fontStyle=1" parent="1" vertex="1">
          <mxGeometry x="80" y="70" width="470" height="50" as="geometry" />
        </mxCell>
        <mxCell id="pPCsq5DY9bUPXMMZWvm_-1" value="" style="rounded=0;whiteSpace=wrap;html=1;fillColor=none;dashed=1;strokeColor=#B3B3B3;strokeWidth=2;glass=0;shadow=0;" parent="1" vertex="1">
          <mxGeometry x="159" y="223" width="240" height="640" as="geometry" />
        </mxCell>
        <mxCell id="pPCsq5DY9bUPXMMZWvm_-2" value="&lt;font style=&quot;font-size: 24px;&quot;&gt;Sources&lt;/font&gt;" style="rounded=0;whiteSpace=wrap;html=1;fillColor=default;strokeColor=none;fontStyle=1" parent="1" vertex="1">
          <mxGeometry x="219" y="203" width="120" height="40" as="geometry" />
        </mxCell>
        <mxCell id="pPCsq5DY9bUPXMMZWvm_-7" value="&lt;font style=&quot;font-size: 20px;&quot;&gt;Bronze Layer&lt;/font&gt;" style="rounded=1;whiteSpace=wrap;html=1;fontStyle=1;fillColor=#ffe6cc;strokeColor=#d79b00;strokeWidth=3;" parent="1" vertex="1">
          <mxGeometry x="479" y="223" width="240" height="40" as="geometry" />
        </mxCell>
        <mxCell id="pPCsq5DY9bUPXMMZWvm_-8" value="" style="rounded=1;whiteSpace=wrap;html=1;fontStyle=1;fillColor=none;strokeColor=#d79b00;strokeWidth=3;" parent="1" vertex="1">
          <mxGeometry x="479" y="273" width="240" height="590" as="geometry" />
        </mxCell>
        <mxCell id="8yo2uL66h_XUksVa7N9z-5" style="edgeStyle=orthogonalEdgeStyle;rounded=0;orthogonalLoop=1;jettySize=auto;html=1;entryX=0;entryY=0.5;entryDx=0;entryDy=0;" parent="1" source="pPCsq5DY9bUPXMMZWvm_-13" target="8yo2uL66h_XUksVa7N9z-1" edge="1">
          <mxGeometry relative="1" as="geometry" />
        </mxCell>
        <mxCell id="8yo2uL66h_XUksVa7N9z-6" style="edgeStyle=orthogonalEdgeStyle;rounded=0;orthogonalLoop=1;jettySize=auto;html=1;entryX=0;entryY=0.5;entryDx=0;entryDy=0;" parent="1" source="pPCsq5DY9bUPXMMZWvm_-13" target="8yo2uL66h_XUksVa7N9z-3" edge="1">
          <mxGeometry relative="1" as="geometry" />
        </mxCell>
        <mxCell id="8yo2uL66h_XUksVa7N9z-28" style="edgeStyle=orthogonalEdgeStyle;rounded=0;orthogonalLoop=1;jettySize=auto;html=1;" parent="1" source="8yo2uL66h_XUksVa7N9z-1" target="8yo2uL66h_XUksVa7N9z-22" edge="1">
          <mxGeometry relative="1" as="geometry" />
        </mxCell>
        <mxCell id="8yo2uL66h_XUksVa7N9z-1" value="&lt;font&gt;crm_cust_info&lt;/font&gt;" style="rounded=1;whiteSpace=wrap;html=1;fontStyle=0;fillColor=#ffe6cc;strokeColor=#d79b00;strokeWidth=3;fontSize=16;" parent="1" vertex="1">
          <mxGeometry x="499" y="329" width="200" height="40" as="geometry" />
        </mxCell>
        <mxCell id="8yo2uL66h_XUksVa7N9z-29" style="edgeStyle=orthogonalEdgeStyle;rounded=0;orthogonalLoop=1;jettySize=auto;html=1;" parent="1" source="8yo2uL66h_XUksVa7N9z-2" target="8yo2uL66h_XUksVa7N9z-23" edge="1">
          <mxGeometry relative="1" as="geometry" />
        </mxCell>
        <mxCell id="8yo2uL66h_XUksVa7N9z-2" value="&lt;font&gt;crm_sales_details&lt;/font&gt;" style="rounded=1;whiteSpace=wrap;html=1;fontStyle=0;fillColor=#ffe6cc;strokeColor=#d79b00;strokeWidth=3;fontSize=16;" parent="1" vertex="1">
          <mxGeometry x="499" y="409" width="200" height="40" as="geometry" />
        </mxCell>
        <mxCell id="8yo2uL66h_XUksVa7N9z-30" style="edgeStyle=orthogonalEdgeStyle;rounded=0;orthogonalLoop=1;jettySize=auto;html=1;entryX=0;entryY=0.5;entryDx=0;entryDy=0;" parent="1" source="8yo2uL66h_XUksVa7N9z-3" target="8yo2uL66h_XUksVa7N9z-24" edge="1">
          <mxGeometry relative="1" as="geometry" />
        </mxCell>
        <mxCell id="8yo2uL66h_XUksVa7N9z-3" value="&lt;font&gt;crm_prd_info&lt;/font&gt;" style="rounded=1;whiteSpace=wrap;html=1;fontStyle=0;fillColor=#ffe6cc;strokeColor=#d79b00;strokeWidth=3;fontSize=16;" parent="1" vertex="1">
          <mxGeometry x="499" y="487" width="200" height="40" as="geometry" />
        </mxCell>
        <mxCell id="8yo2uL66h_XUksVa7N9z-8" value="" style="group" parent="1" vertex="1" connectable="0">
          <mxGeometry x="234.73" y="383" width="106.46000000000001" height="86" as="geometry" />
        </mxCell>
        <mxCell id="pPCsq5DY9bUPXMMZWvm_-13" value="&lt;font style=&quot;font-size: 18px;&quot;&gt;&lt;b&gt;CRM&lt;/b&gt;&lt;/font&gt;" style="sketch=0;pointerEvents=1;shadow=0;dashed=0;html=1;strokeColor=none;labelPosition=center;verticalLabelPosition=bottom;verticalAlign=top;outlineConnect=0;align=center;shape=mxgraph.office.concepts.folder;fillColor=#7FBA42;" parent="8yo2uL66h_XUksVa7N9z-8" vertex="1">
          <mxGeometry width="95" height="80" as="geometry" />
        </mxCell>
        <mxCell id="pPCsq5DY9bUPXMMZWvm_-14" value="" style="image;aspect=fixed;html=1;points=[];align=center;fontSize=12;image=img/lib/azure2/general/File.svg;" parent="8yo2uL66h_XUksVa7N9z-8" vertex="1">
          <mxGeometry x="74" y="46" width="32.46" height="40" as="geometry" />
        </mxCell>
        <mxCell id="8yo2uL66h_XUksVa7N9z-9" value="" style="group" parent="1" vertex="1" connectable="0">
          <mxGeometry x="225.77" y="663" width="106.46000000000001" height="86" as="geometry" />
        </mxCell>
        <mxCell id="pPCsq5DY9bUPXMMZWvm_-15" value="&lt;font style=&quot;font-size: 18px;&quot;&gt;&lt;b&gt;ERP&lt;/b&gt;&lt;/font&gt;" style="sketch=0;pointerEvents=1;shadow=0;dashed=0;html=1;strokeColor=none;labelPosition=center;verticalLabelPosition=bottom;verticalAlign=top;outlineConnect=0;align=center;shape=mxgraph.office.concepts.folder;fillColor=#7FBA42;" parent="8yo2uL66h_XUksVa7N9z-9" vertex="1">
          <mxGeometry width="95" height="80" as="geometry" />
        </mxCell>
        <mxCell id="pPCsq5DY9bUPXMMZWvm_-16" value="" style="image;aspect=fixed;html=1;points=[];align=center;fontSize=12;image=img/lib/azure2/general/File.svg;" parent="8yo2uL66h_XUksVa7N9z-9" vertex="1">
          <mxGeometry x="74" y="46" width="32.46" height="40" as="geometry" />
        </mxCell>
        <mxCell id="8yo2uL66h_XUksVa7N9z-31" style="edgeStyle=orthogonalEdgeStyle;rounded=0;orthogonalLoop=1;jettySize=auto;html=1;entryX=0;entryY=0.5;entryDx=0;entryDy=0;" parent="1" source="8yo2uL66h_XUksVa7N9z-10" target="8yo2uL66h_XUksVa7N9z-25" edge="1">
          <mxGeometry relative="1" as="geometry" />
        </mxCell>
        <mxCell id="8yo2uL66h_XUksVa7N9z-10" value="erp_cust_az12" style="rounded=1;whiteSpace=wrap;html=1;fontStyle=0;fillColor=#ffe6cc;strokeColor=#d79b00;strokeWidth=3;fontSize=16;" parent="1" vertex="1">
          <mxGeometry x="499" y="603" width="200" height="40" as="geometry" />
        </mxCell>
        <mxCell id="8yo2uL66h_XUksVa7N9z-32" style="edgeStyle=orthogonalEdgeStyle;rounded=0;orthogonalLoop=1;jettySize=auto;html=1;" parent="1" source="8yo2uL66h_XUksVa7N9z-11" target="8yo2uL66h_XUksVa7N9z-26" edge="1">
          <mxGeometry relative="1" as="geometry" />
        </mxCell>
        <mxCell id="8yo2uL66h_XUksVa7N9z-11" value="&lt;font&gt;erp_loc_a101&lt;/font&gt;" style="rounded=1;whiteSpace=wrap;html=1;fontStyle=0;fillColor=#ffe6cc;strokeColor=#d79b00;strokeWidth=3;fontSize=16;" parent="1" vertex="1">
          <mxGeometry x="499" y="683" width="200" height="40" as="geometry" />
        </mxCell>
        <mxCell id="8yo2uL66h_XUksVa7N9z-33" style="edgeStyle=orthogonalEdgeStyle;rounded=0;orthogonalLoop=1;jettySize=auto;html=1;entryX=0;entryY=0.5;entryDx=0;entryDy=0;" parent="1" source="8yo2uL66h_XUksVa7N9z-12" target="8yo2uL66h_XUksVa7N9z-27" edge="1">
          <mxGeometry relative="1" as="geometry" />
        </mxCell>
        <mxCell id="8yo2uL66h_XUksVa7N9z-12" value="&lt;font&gt;erp_px_cat_g1v2&lt;/font&gt;" style="rounded=1;whiteSpace=wrap;html=1;fontStyle=0;fillColor=#ffe6cc;strokeColor=#d79b00;strokeWidth=3;fontSize=16;" parent="1" vertex="1">
          <mxGeometry x="499" y="761" width="200" height="40" as="geometry" />
        </mxCell>
        <mxCell id="8yo2uL66h_XUksVa7N9z-13" style="edgeStyle=orthogonalEdgeStyle;rounded=0;orthogonalLoop=1;jettySize=auto;html=1;entryX=0;entryY=0.5;entryDx=0;entryDy=0;" parent="1" source="pPCsq5DY9bUPXMMZWvm_-15" target="8yo2uL66h_XUksVa7N9z-10" edge="1">
          <mxGeometry relative="1" as="geometry" />
        </mxCell>
        <mxCell id="8yo2uL66h_XUksVa7N9z-14" style="edgeStyle=orthogonalEdgeStyle;rounded=0;orthogonalLoop=1;jettySize=auto;html=1;entryX=0;entryY=0.5;entryDx=0;entryDy=0;" parent="1" source="pPCsq5DY9bUPXMMZWvm_-15" target="8yo2uL66h_XUksVa7N9z-12" edge="1">
          <mxGeometry relative="1" as="geometry" />
        </mxCell>
        <mxCell id="8yo2uL66h_XUksVa7N9z-18" style="edgeStyle=orthogonalEdgeStyle;rounded=0;orthogonalLoop=1;jettySize=auto;html=1;" parent="1" source="pPCsq5DY9bUPXMMZWvm_-13" edge="1">
          <mxGeometry relative="1" as="geometry">
            <mxPoint x="499" y="423" as="targetPoint" />
          </mxGeometry>
        </mxCell>
        <mxCell id="8yo2uL66h_XUksVa7N9z-19" style="edgeStyle=orthogonalEdgeStyle;rounded=0;orthogonalLoop=1;jettySize=auto;html=1;entryX=0;entryY=0.5;entryDx=0;entryDy=0;" parent="1" source="pPCsq5DY9bUPXMMZWvm_-15" target="8yo2uL66h_XUksVa7N9z-11" edge="1">
          <mxGeometry relative="1" as="geometry" />
        </mxCell>
        <mxCell id="8yo2uL66h_XUksVa7N9z-20" value="&lt;font style=&quot;font-size: 20px;&quot;&gt;Silver Layer&lt;/font&gt;" style="rounded=1;whiteSpace=wrap;html=1;fontStyle=1;fillColor=#f5f5f5;strokeColor=#666666;strokeWidth=3;fontColor=#333333;" parent="1" vertex="1">
          <mxGeometry x="880" y="223" width="240" height="40" as="geometry" />
        </mxCell>
        <mxCell id="8yo2uL66h_XUksVa7N9z-21" value="" style="rounded=1;whiteSpace=wrap;html=1;fontStyle=1;fillColor=none;strokeColor=#666666;strokeWidth=3;fontColor=#333333;" parent="1" vertex="1">
          <mxGeometry x="880" y="273" width="240" height="590" as="geometry" />
        </mxCell>
        <mxCell id="8yo2uL66h_XUksVa7N9z-22" value="&lt;font&gt;crm_cust_info&lt;/font&gt;" style="rounded=1;whiteSpace=wrap;html=1;fontStyle=0;fillColor=#f5f5f5;strokeColor=#666666;strokeWidth=3;fontSize=16;fontColor=#333333;" parent="1" vertex="1">
          <mxGeometry x="900" y="329" width="200" height="40" as="geometry" />
        </mxCell>
        <mxCell id="8yo2uL66h_XUksVa7N9z-23" value="&lt;font&gt;crm_sales_details&lt;/font&gt;" style="rounded=1;whiteSpace=wrap;html=1;fontStyle=0;fillColor=#f5f5f5;strokeColor=#666666;strokeWidth=3;fontSize=16;fontColor=#333333;" parent="1" vertex="1">
          <mxGeometry x="900" y="409" width="200" height="40" as="geometry" />
        </mxCell>
        <mxCell id="8yo2uL66h_XUksVa7N9z-24" value="&lt;font&gt;crm_prd_info&lt;/font&gt;" style="rounded=1;whiteSpace=wrap;html=1;fontStyle=0;fillColor=#f5f5f5;strokeColor=#666666;strokeWidth=3;fontSize=16;fontColor=#333333;" parent="1" vertex="1">
          <mxGeometry x="900" y="487" width="200" height="40" as="geometry" />
        </mxCell>
        <mxCell id="8yo2uL66h_XUksVa7N9z-25" value="&lt;span style=&quot;color: rgb(0, 0, 0);&quot;&gt;erp_cust_az12&lt;/span&gt;" style="rounded=1;whiteSpace=wrap;html=1;fontStyle=0;fillColor=#f5f5f5;strokeColor=#666666;strokeWidth=3;fontSize=16;fontColor=#333333;" parent="1" vertex="1">
          <mxGeometry x="900" y="603" width="200" height="40" as="geometry" />
        </mxCell>
        <mxCell id="8yo2uL66h_XUksVa7N9z-26" value="&lt;span style=&quot;color: rgb(0, 0, 0);&quot;&gt;erp_loc_a101&lt;/span&gt;" style="rounded=1;whiteSpace=wrap;html=1;fontStyle=0;fillColor=#f5f5f5;strokeColor=#666666;strokeWidth=3;fontSize=16;fontColor=#333333;" parent="1" vertex="1">
          <mxGeometry x="900" y="683" width="200" height="40" as="geometry" />
        </mxCell>
        <mxCell id="8yo2uL66h_XUksVa7N9z-27" value="&lt;font&gt;erp_px_cat_g1v2&lt;/font&gt;" style="rounded=1;whiteSpace=wrap;html=1;fontStyle=0;fillColor=#f5f5f5;strokeColor=#666666;strokeWidth=3;fontSize=16;fontColor=#333333;" parent="1" vertex="1">
          <mxGeometry x="900" y="761" width="200" height="40" as="geometry" />
        </mxCell>
        <mxCell id="8yo2uL66h_XUksVa7N9z-42" value="&lt;font style=&quot;font-size: 20px;&quot;&gt;Gold Layer&lt;/font&gt;" style="rounded=1;whiteSpace=wrap;html=1;fontStyle=1;fillColor=#fad7ac;strokeColor=#b46504;strokeWidth=3;" parent="1" vertex="1">
          <mxGeometry x="1280" y="223" width="240" height="40" as="geometry" />
        </mxCell>
        <mxCell id="8yo2uL66h_XUksVa7N9z-43" value="" style="rounded=1;whiteSpace=wrap;html=1;fontStyle=1;fillColor=none;strokeColor=#b46504;strokeWidth=3;" parent="1" vertex="1">
          <mxGeometry x="1280" y="273" width="240" height="590" as="geometry" />
        </mxCell>
        <mxCell id="8yo2uL66h_XUksVa7N9z-44" value="&lt;font&gt;dim_customers&lt;/font&gt;" style="rounded=1;whiteSpace=wrap;html=1;fontStyle=0;fillColor=none;strokeColor=#b46504;strokeWidth=3;fontSize=16;" parent="1" vertex="1">
          <mxGeometry x="1300" y="369" width="200" height="40" as="geometry" />
        </mxCell>
        <mxCell id="8yo2uL66h_XUksVa7N9z-45" value="fact_sales" style="rounded=1;whiteSpace=wrap;html=1;fontStyle=0;fillColor=none;strokeColor=#b46504;strokeWidth=3;fontSize=16;" parent="1" vertex="1">
          <mxGeometry x="1300" y="543" width="200" height="40" as="geometry" />
        </mxCell>
        <mxCell id="8yo2uL66h_XUksVa7N9z-46" value="&lt;font&gt;dim_products&lt;/font&gt;" style="rounded=1;whiteSpace=wrap;html=1;fontStyle=0;fillColor=none;strokeColor=#b46504;strokeWidth=3;fontSize=16;" parent="1" vertex="1">
          <mxGeometry x="1300" y="710" width="200" height="40" as="geometry" />
        </mxCell>
        <mxCell id="8yo2uL66h_XUksVa7N9z-50" value="" style="endArrow=classic;html=1;rounded=0;exitX=1;exitY=0.5;exitDx=0;exitDy=0;entryX=0;entryY=0.5;entryDx=0;entryDy=0;jumpStyle=gap;" parent="1" source="8yo2uL66h_XUksVa7N9z-23" target="8yo2uL66h_XUksVa7N9z-45" edge="1">
          <mxGeometry width="50" height="50" relative="1" as="geometry">
            <mxPoint x="1190" y="543" as="sourcePoint" />
            <mxPoint x="1240" y="493" as="targetPoint" />
          </mxGeometry>
        </mxCell>
        <mxCell id="8yo2uL66h_XUksVa7N9z-52" value="" style="endArrow=classic;html=1;rounded=0;exitX=1;exitY=0.5;exitDx=0;exitDy=0;entryX=0;entryY=0.5;entryDx=0;entryDy=0;jumpStyle=gap;" parent="1" source="8yo2uL66h_XUksVa7N9z-22" target="8yo2uL66h_XUksVa7N9z-44" edge="1">
          <mxGeometry width="50" height="50" relative="1" as="geometry">
            <mxPoint x="1170" y="403" as="sourcePoint" />
            <mxPoint x="1220" y="353" as="targetPoint" />
          </mxGeometry>
        </mxCell>
        <mxCell id="8yo2uL66h_XUksVa7N9z-53" value="" style="endArrow=classic;html=1;rounded=0;exitX=1;exitY=0.5;exitDx=0;exitDy=0;entryX=0;entryY=0.5;entryDx=0;entryDy=0;jumpStyle=gap;" parent="1" source="8yo2uL66h_XUksVa7N9z-25" target="8yo2uL66h_XUksVa7N9z-44" edge="1">
          <mxGeometry width="50" height="50" relative="1" as="geometry">
            <mxPoint x="1150" y="653" as="sourcePoint" />
            <mxPoint x="1200" y="603" as="targetPoint" />
          </mxGeometry>
        </mxCell>
        <mxCell id="8yo2uL66h_XUksVa7N9z-54" value="" style="endArrow=classic;html=1;rounded=0;exitX=1;exitY=0.5;exitDx=0;exitDy=0;entryX=0;entryY=0.5;entryDx=0;entryDy=0;jumpStyle=gap;" parent="1" source="8yo2uL66h_XUksVa7N9z-27" target="8yo2uL66h_XUksVa7N9z-46" edge="1">
          <mxGeometry width="50" height="50" relative="1" as="geometry">
            <mxPoint x="1190" y="713" as="sourcePoint" />
            <mxPoint x="1240" y="663" as="targetPoint" />
          </mxGeometry>
        </mxCell>
        <mxCell id="8yo2uL66h_XUksVa7N9z-56" value="" style="endArrow=classic;html=1;rounded=0;exitX=1;exitY=0.5;exitDx=0;exitDy=0;entryX=0;entryY=0.5;entryDx=0;entryDy=0;jumpStyle=gap;" parent="1" source="8yo2uL66h_XUksVa7N9z-26" target="8yo2uL66h_XUksVa7N9z-44" edge="1">
          <mxGeometry width="50" height="50" relative="1" as="geometry">
            <mxPoint x="1140" y="723" as="sourcePoint" />
            <mxPoint x="1300" y="403" as="targetPoint" />
          </mxGeometry>
        </mxCell>
        <mxCell id="8yo2uL66h_XUksVa7N9z-57" value="" style="endArrow=classic;html=1;rounded=0;exitX=1;exitY=0.5;exitDx=0;exitDy=0;entryX=0;entryY=0.5;entryDx=0;entryDy=0;jumpStyle=gap;" parent="1" source="8yo2uL66h_XUksVa7N9z-24" target="8yo2uL66h_XUksVa7N9z-46" edge="1">
          <mxGeometry width="50" height="50" relative="1" as="geometry">
            <mxPoint x="1190" y="703" as="sourcePoint" />
            <mxPoint x="1240" y="653" as="targetPoint" />
          </mxGeometry>
        </mxCell>
        <mxCell id="I881EfnkL-JRjurdanLd-1" value="" style="rounded=0;whiteSpace=wrap;html=1;strokeColor=none;fillColor=none;" vertex="1" parent="1">
          <mxGeometry width="1650" height="990" as="geometry" />
        </mxCell>
      </root>
    </mxGraphModel>
  </diagram>
</mxfile>
